<mxfile host="app.diagrams.net" modified="2021-03-04T21:27:17.195Z" agent="5.0 (Windows NT 10.0; Win64; x64) AppleWebKit/537.36 (KHTML, like Gecko) Chrome/87.0.4280.141 Safari/537.36" etag="33rC5tiUFC_SLrIGtRBJ" version="14.4.4" type="github">
  <diagram name="Page-1" id="03018318-947c-dd8e-b7a3-06fadd420f32">
    <mxGraphModel dx="1701" dy="1049" grid="1" gridSize="10" guides="1" tooltips="1" connect="1" arrows="1" fold="1" page="1" pageScale="1" pageWidth="1100" pageHeight="850" background="#ffffff" math="0" shadow="0">
      <root>
        <mxCell id="0" />
        <mxCell id="1" parent="0" />
        <mxCell id="677b7b8949515195-1" value="" style="whiteSpace=wrap;html=1;rounded=0;shadow=0;labelBackgroundColor=none;strokeColor=#000000;strokeWidth=1;fillColor=none;fontFamily=Verdana;fontSize=12;fontColor=#000000;align=center;comic=1;" parent="1" vertex="1">
          <mxGeometry x="20" y="20" width="1060" height="810" as="geometry" />
        </mxCell>
        <mxCell id="vficORJw0-0QsWjxtlRG-62" value="" style="strokeWidth=1;shadow=0;dashed=0;align=center;html=1;shape=mxgraph.mockup.containers.marginRect2;rectMarginLeft=67;strokeColor=#666666;gradientColor=none;" vertex="1" parent="1">
          <mxGeometry x="150" y="225" width="680" height="465" as="geometry" />
        </mxCell>
        <mxCell id="vficORJw0-0QsWjxtlRG-63" value="Tab 1" style="strokeColor=inherit;fillColor=inherit;gradientColor=inherit;strokeWidth=1;shadow=0;dashed=0;align=center;html=1;shape=mxgraph.mockup.containers.rrect;rSize=0;fontSize=17;fontColor=#666666;" vertex="1" parent="vficORJw0-0QsWjxtlRG-62">
          <mxGeometry width="60" height="25" relative="1" as="geometry">
            <mxPoint y="10" as="offset" />
          </mxGeometry>
        </mxCell>
        <mxCell id="vficORJw0-0QsWjxtlRG-64" value="Tab 2" style="strokeWidth=1;shadow=0;dashed=0;align=center;html=1;shape=mxgraph.mockup.containers.rrect;rSize=0;fontSize=17;fontColor=#ffffff;strokeColor=#008cff;fillColor=#008cff;" vertex="1" parent="vficORJw0-0QsWjxtlRG-62">
          <mxGeometry width="60" height="25" relative="1" as="geometry">
            <mxPoint y="40" as="offset" />
          </mxGeometry>
        </mxCell>
        <mxCell id="vficORJw0-0QsWjxtlRG-65" value="Tab 3" style="strokeColor=inherit;fillColor=inherit;gradientColor=inherit;strokeWidth=1;shadow=0;dashed=0;align=center;html=1;shape=mxgraph.mockup.containers.rrect;rSize=0;fontSize=17;fontColor=#666666;" vertex="1" parent="vficORJw0-0QsWjxtlRG-62">
          <mxGeometry width="60" height="25" relative="1" as="geometry">
            <mxPoint y="70" as="offset" />
          </mxGeometry>
        </mxCell>
        <mxCell id="vficORJw0-0QsWjxtlRG-66" value="" style="strokeWidth=1;shadow=0;dashed=0;align=center;html=1;shape=mxgraph.mockup.containers.leftButton;rSize=5;strokeColor=#008cff;fillColor=#008cff;resizeHeight=1;movable=0;deletable=0;" vertex="1" parent="vficORJw0-0QsWjxtlRG-62">
          <mxGeometry width="7" height="465" relative="1" as="geometry">
            <mxPoint x="60" as="offset" />
          </mxGeometry>
        </mxCell>
        <mxCell id="vficORJw0-0QsWjxtlRG-67" value="&lt;table cellpadding=&quot;4&quot; cellspacing=&quot;0&quot; border=&quot;1&quot; style=&quot;font-size:1em;width:100%;height:100%;&quot;&gt;&lt;tr&gt;&lt;th&gt;Header 1&lt;/th&gt;&lt;th&gt;Header 2&lt;/th&gt;&lt;/tr&gt;&lt;tr&gt;&lt;td&gt;row 1, cell 1&lt;/td&gt;&lt;td&gt;row 1, cell 2&lt;/td&gt;&lt;/tr&gt;&lt;tr&gt;&lt;td&gt;row 2, cell 1&lt;/td&gt;&lt;td&gt;row 2, cell 2&lt;/td&gt;&lt;/tr&gt;&lt;/table&gt; " style="verticalAlign=top;align=left;overflow=fill;fontSize=12;fontFamily=Helvetica;html=1;rounded=1;" vertex="1" parent="vficORJw0-0QsWjxtlRG-62">
          <mxGeometry x="430" y="288" width="180" height="80" as="geometry" />
        </mxCell>
        <mxCell id="vficORJw0-0QsWjxtlRG-68" value="" style="verticalLabelPosition=bottom;shadow=0;dashed=0;align=center;html=1;verticalAlign=top;strokeWidth=1;shape=mxgraph.mockup.forms.horSlider;strokeColor=#999999;sliderStyle=basic;sliderPos=20;handleStyle=circle;fillColor2=#ddeeff;rounded=1;labelBackgroundColor=#FFCCFF;fillColor=#E5CCFF;gradientColor=#ffffff;" vertex="1" parent="vficORJw0-0QsWjxtlRG-62">
          <mxGeometry x="510" y="115" width="150" height="30" as="geometry" />
        </mxCell>
        <mxCell id="677b7b8949515195-2" value="LOGO" style="whiteSpace=wrap;html=1;rounded=0;shadow=0;labelBackgroundColor=none;strokeWidth=1;fontFamily=Verdana;fontSize=28;align=center;comic=1;" parent="1" vertex="1">
          <mxGeometry x="40" y="60" width="190" height="50" as="geometry" />
        </mxCell>
        <mxCell id="677b7b8949515195-3" value="Search" style="strokeWidth=1;shadow=0;dashed=0;align=center;html=1;shape=mxgraph.mockup.forms.searchBox;strokeColor=#999999;mainText=;strokeColor2=#008cff;fontColor=#666666;fontSize=17;align=left;spacingLeft=3;rounded=0;labelBackgroundColor=none;comic=1;" parent="1" vertex="1">
          <mxGeometry x="840" y="95" width="220" height="30" as="geometry" />
        </mxCell>
        <mxCell id="677b7b8949515195-4" value="Topic 1" style="text;html=1;points=[];align=left;verticalAlign=top;spacingTop=-4;fontSize=14;fontFamily=Verdana" parent="1" vertex="1">
          <mxGeometry x="780" y="40" width="60" height="20" as="geometry" />
        </mxCell>
        <mxCell id="677b7b8949515195-5" value="Topic 2" style="text;html=1;points=[];align=left;verticalAlign=top;spacingTop=-4;fontSize=14;fontFamily=Verdana" parent="1" vertex="1">
          <mxGeometry x="860" y="40" width="60" height="20" as="geometry" />
        </mxCell>
        <mxCell id="677b7b8949515195-6" value="Topic 3" style="text;html=1;points=[];align=left;verticalAlign=top;spacingTop=-4;fontSize=14;fontFamily=Verdana" parent="1" vertex="1">
          <mxGeometry x="930" y="40" width="60" height="20" as="geometry" />
        </mxCell>
        <mxCell id="677b7b8949515195-7" value="Topic 4" style="text;html=1;points=[];align=left;verticalAlign=top;spacingTop=-4;fontSize=14;fontFamily=Verdana" parent="1" vertex="1">
          <mxGeometry x="1000" y="40" width="60" height="20" as="geometry" />
        </mxCell>
        <mxCell id="677b7b8949515195-8" value="" style="whiteSpace=wrap;html=1;rounded=0;shadow=0;labelBackgroundColor=none;strokeWidth=1;fillColor=none;fontFamily=Verdana;fontSize=12;align=center;comic=1;" parent="1" vertex="1">
          <mxGeometry x="30" y="230" width="110" height="250" as="geometry" />
        </mxCell>
        <mxCell id="677b7b8949515195-9" value="" style="line;strokeWidth=1;html=1;rounded=0;shadow=0;labelBackgroundColor=none;fillColor=none;fontFamily=Verdana;fontSize=14;fontColor=#000000;align=center;comic=1;" parent="1" vertex="1">
          <mxGeometry x="20" y="140" width="1060" height="10" as="geometry" />
        </mxCell>
        <mxCell id="677b7b8949515195-10" value="" style="whiteSpace=wrap;html=1;rounded=0;shadow=0;labelBackgroundColor=none;strokeWidth=1;fillColor=none;fontFamily=Verdana;fontSize=12;align=center;comic=1;" parent="1" vertex="1">
          <mxGeometry x="30" y="160" width="1040" height="50" as="geometry" />
        </mxCell>
        <mxCell id="677b7b8949515195-11" value="Section 1" style="text;html=1;points=[];align=left;verticalAlign=top;spacingTop=-4;fontSize=14;fontFamily=Verdana" parent="1" vertex="1">
          <mxGeometry x="330" y="175" width="60" height="20" as="geometry" />
        </mxCell>
        <mxCell id="677b7b8949515195-12" value="Section 2" style="text;html=1;points=[];align=left;verticalAlign=top;spacingTop=-4;fontSize=14;fontFamily=Verdana" parent="1" vertex="1">
          <mxGeometry x="477" y="175" width="60" height="20" as="geometry" />
        </mxCell>
        <mxCell id="677b7b8949515195-13" value="Section 3" style="text;html=1;points=[];align=left;verticalAlign=top;spacingTop=-4;fontSize=14;fontFamily=Verdana" parent="1" vertex="1">
          <mxGeometry x="623" y="175" width="60" height="20" as="geometry" />
        </mxCell>
        <mxCell id="677b7b8949515195-14" value="Section 4" style="text;html=1;points=[];align=left;verticalAlign=top;spacingTop=-4;fontSize=14;fontFamily=Verdana" parent="1" vertex="1">
          <mxGeometry x="770" y="175" width="60" height="20" as="geometry" />
        </mxCell>
        <mxCell id="677b7b8949515195-16" value="" style="verticalLabelPosition=bottom;shadow=0;dashed=0;align=center;html=1;verticalAlign=top;strokeWidth=1;shape=mxgraph.mockup.graphics.simpleIcon;strokeColor=#999999;rounded=0;labelBackgroundColor=none;fontFamily=Verdana;fontSize=14;fontColor=#000000;comic=1;" parent="1" vertex="1">
          <mxGeometry x="250" y="230" width="190" height="140" as="geometry" />
        </mxCell>
        <mxCell id="677b7b8949515195-25" value="" style="whiteSpace=wrap;html=1;rounded=0;shadow=0;labelBackgroundColor=none;strokeWidth=1;fillColor=none;fontFamily=Verdana;fontSize=12;align=center;comic=1;" parent="1" vertex="1">
          <mxGeometry x="840" y="230" width="230" height="400" as="geometry" />
        </mxCell>
        <mxCell id="677b7b8949515195-26" value="" style="whiteSpace=wrap;html=1;rounded=0;shadow=0;labelBackgroundColor=none;strokeWidth=1;fillColor=none;fontFamily=Verdana;fontSize=12;align=center;comic=1;" parent="1" vertex="1">
          <mxGeometry x="840" y="640" width="230" height="180" as="geometry" />
        </mxCell>
        <mxCell id="677b7b8949515195-27" value="Section 1" style="text;html=1;points=[];align=left;verticalAlign=top;spacingTop=-4;fontSize=14;fontFamily=Verdana" parent="1" vertex="1">
          <mxGeometry x="40" y="250" width="170" height="20" as="geometry" />
        </mxCell>
        <mxCell id="677b7b8949515195-28" value="Section 2" style="text;html=1;points=[];align=left;verticalAlign=top;spacingTop=-4;fontSize=14;fontFamily=Verdana" parent="1" vertex="1">
          <mxGeometry x="40" y="286" width="170" height="20" as="geometry" />
        </mxCell>
        <mxCell id="677b7b8949515195-29" value="Section 3" style="text;html=1;points=[];align=left;verticalAlign=top;spacingTop=-4;fontSize=14;fontFamily=Verdana" parent="1" vertex="1">
          <mxGeometry x="40" y="321" width="170" height="20" as="geometry" />
        </mxCell>
        <mxCell id="677b7b8949515195-30" value="Section 4" style="text;html=1;points=[];align=left;verticalAlign=top;spacingTop=-4;fontSize=14;fontFamily=Verdana" parent="1" vertex="1">
          <mxGeometry x="40" y="357" width="170" height="20" as="geometry" />
        </mxCell>
        <mxCell id="677b7b8949515195-39" value="Section 5" style="text;html=1;points=[];align=left;verticalAlign=top;spacingTop=-4;fontSize=14;fontFamily=Verdana" parent="1" vertex="1">
          <mxGeometry x="40" y="393" width="170" height="20" as="geometry" />
        </mxCell>
        <mxCell id="677b7b8949515195-40" value="Section 6" style="text;html=1;points=[];align=left;verticalAlign=top;spacingTop=-4;fontSize=14;fontFamily=Verdana" parent="1" vertex="1">
          <mxGeometry x="40" y="429" width="170" height="20" as="geometry" />
        </mxCell>
        <mxCell id="677b7b8949515195-42" value="External Links" style="text;html=1;points=[];align=left;verticalAlign=top;spacingTop=-4;fontSize=14;fontFamily=Verdana" parent="1" vertex="1">
          <mxGeometry x="860" y="653" width="170" height="20" as="geometry" />
        </mxCell>
        <mxCell id="677b7b8949515195-44" value="Feature 1" style="text;html=1;points=[];align=left;verticalAlign=top;spacingTop=-4;fontSize=14;fontFamily=Verdana" parent="1" vertex="1">
          <mxGeometry x="860" y="250" width="170" height="20" as="geometry" />
        </mxCell>
        <mxCell id="677b7b8949515195-45" value="Feature 2" style="text;html=1;points=[];align=left;verticalAlign=top;spacingTop=-4;fontSize=14;fontFamily=Verdana" parent="1" vertex="1">
          <mxGeometry x="860" y="285" width="170" height="20" as="geometry" />
        </mxCell>
        <mxCell id="677b7b8949515195-46" value="Feature 3" style="text;html=1;points=[];align=left;verticalAlign=top;spacingTop=-4;fontSize=14;fontFamily=Verdana" parent="1" vertex="1">
          <mxGeometry x="860" y="320" width="170" height="20" as="geometry" />
        </mxCell>
        <mxCell id="677b7b8949515195-47" value="Feature 4" style="text;html=1;points=[];align=left;verticalAlign=top;spacingTop=-4;fontSize=14;fontFamily=Verdana" parent="1" vertex="1">
          <mxGeometry x="860" y="355" width="170" height="20" as="geometry" />
        </mxCell>
        <mxCell id="677b7b8949515195-48" value="Feature 5" style="text;html=1;points=[];align=left;verticalAlign=top;spacingTop=-4;fontSize=14;fontFamily=Verdana" parent="1" vertex="1">
          <mxGeometry x="860" y="390" width="170" height="20" as="geometry" />
        </mxCell>
        <mxCell id="677b7b8949515195-49" value="Feature 6" style="text;html=1;points=[];align=left;verticalAlign=top;spacingTop=-4;fontSize=14;fontFamily=Verdana" parent="1" vertex="1">
          <mxGeometry x="860" y="425" width="170" height="20" as="geometry" />
        </mxCell>
        <mxCell id="vficORJw0-0QsWjxtlRG-1" value="" style="verticalLabelPosition=bottom;shadow=0;dashed=0;align=center;html=1;verticalAlign=top;strokeWidth=1;shape=mxgraph.mockup.graphics.simpleIcon;strokeColor=#999999;rounded=0;labelBackgroundColor=none;fontFamily=Verdana;fontSize=14;fontColor=#000000;comic=1;" vertex="1" parent="1">
          <mxGeometry x="455" y="230" width="190" height="140" as="geometry" />
        </mxCell>
        <mxCell id="vficORJw0-0QsWjxtlRG-2" value="" style="strokeWidth=1;shadow=0;dashed=0;align=center;html=1;shape=mxgraph.mockup.forms.rrect;rSize=0;strokeColor=#666666;fillColor=#f5f5f5;recursiveResize=0;fontColor=#333333;" vertex="1" parent="1">
          <mxGeometry x="250" y="380" width="150" height="120" as="geometry" />
        </mxCell>
        <mxCell id="vficORJw0-0QsWjxtlRG-3" value="Setting 1" style="shape=ellipse;rSize=0;fillColor=#eeeeee;strokeColor=#999999;gradientColor=#cccccc;html=1;align=left;spacingLeft=4;fontSize=17;fontColor=#666666;labelPosition=right;" vertex="1" parent="vficORJw0-0QsWjxtlRG-2">
          <mxGeometry x="8" y="7.5" width="15" height="15" as="geometry" />
        </mxCell>
        <mxCell id="vficORJw0-0QsWjxtlRG-4" value="Setting 2" style="shape=ellipse;rSize=0;fillColor=#eeeeee;strokeColor=#999999;gradientColor=#cccccc;html=1;align=left;spacingLeft=4;fontSize=17;fontColor=#666666;labelPosition=right;" vertex="1" parent="vficORJw0-0QsWjxtlRG-2">
          <mxGeometry x="8" y="37.5" width="15" height="15" as="geometry" />
        </mxCell>
        <mxCell id="vficORJw0-0QsWjxtlRG-5" value="Setting 3" style="shape=ellipse;rSize=0;fillColor=#aaaaaa;strokeColor=#444444;gradientColor=#666666;html=1;align=left;spacingLeft=4;fontSize=17;fontColor=#008cff;labelPosition=right;" vertex="1" parent="vficORJw0-0QsWjxtlRG-2">
          <mxGeometry x="8" y="67.5" width="15" height="15" as="geometry" />
        </mxCell>
        <mxCell id="vficORJw0-0QsWjxtlRG-6" value="" style="shape=ellipse;fillColor=#444444;strokeColor=none;html=1;" vertex="1" parent="vficORJw0-0QsWjxtlRG-5">
          <mxGeometry x="3" y="3" width="9" height="9" as="geometry" />
        </mxCell>
        <mxCell id="vficORJw0-0QsWjxtlRG-7" value="Setting 4" style="shape=ellipse;rSize=0;fillColor=#eeeeee;strokeColor=#999999;gradientColor=#cccccc;html=1;align=left;spacingLeft=4;fontSize=17;fontColor=#666666;labelPosition=right;" vertex="1" parent="vficORJw0-0QsWjxtlRG-2">
          <mxGeometry x="8" y="97.5" width="15" height="15" as="geometry" />
        </mxCell>
        <mxCell id="vficORJw0-0QsWjxtlRG-8" value="" style="verticalLabelPosition=bottom;shadow=0;dashed=0;align=center;html=1;verticalAlign=top;strokeWidth=1;shape=mxgraph.mockup.graphics.columnChart;strokeColor=none;strokeColor2=none;strokeColor3=#666666;fillColor2=#008cff;fillColor3=#dddddd;" vertex="1" parent="1">
          <mxGeometry x="410" y="380" width="160" height="120" as="geometry" />
        </mxCell>
        <mxCell id="vficORJw0-0QsWjxtlRG-9" value="" style="verticalLabelPosition=bottom;shadow=0;dashed=0;align=center;html=1;verticalAlign=top;strokeWidth=1;shape=mxgraph.mockup.graphics.bubbleChart;strokeColor=none;strokeColor2=none;strokeColor3=#666666;fillColor2=#008cff;fillColor3=#dddddd;" vertex="1" parent="1">
          <mxGeometry x="580" y="380" width="140" height="120" as="geometry" />
        </mxCell>
        <mxCell id="vficORJw0-0QsWjxtlRG-10" value="" style="strokeWidth=1;shadow=1;dashed=1;align=center;html=1;shape=mxgraph.mockup.graphics.rrect;rSize=0;strokeColor=#999999;labelBorderColor=#6666FF;labelBackgroundColor=#FFCCFF;gradientDirection=east;fillColor=#E5CCFF;gradientColor=#ffffff;perimeterSpacing=1;" vertex="1" parent="1">
          <mxGeometry x="250" y="513" width="310" height="137" as="geometry" />
        </mxCell>
        <mxCell id="vficORJw0-0QsWjxtlRG-11" value="#" style="strokeColor=inherit;fillColor=inherit;gradientColor=inherit;strokeWidth=1;shadow=0;dashed=0;align=center;html=1;shape=mxgraph.mockup.graphics.rrect;rSize=0;fontColor=#666666;" vertex="1" parent="vficORJw0-0QsWjxtlRG-10">
          <mxGeometry width="10.333333333333334" height="18.266666666666662" as="geometry" />
        </mxCell>
        <mxCell id="vficORJw0-0QsWjxtlRG-12" value="Task" style="strokeColor=inherit;fillColor=inherit;gradientColor=inherit;strokeWidth=1;shadow=0;dashed=0;align=center;html=1;shape=mxgraph.mockup.graphics.rrect;rSize=0;fontColor=#666666;" vertex="1" parent="vficORJw0-0QsWjxtlRG-10">
          <mxGeometry x="10.333333333333334" width="20.666666666666668" height="18.266666666666662" as="geometry" />
        </mxCell>
        <mxCell id="vficORJw0-0QsWjxtlRG-13" value="Start" style="strokeColor=inherit;fillColor=inherit;gradientColor=inherit;strokeWidth=1;shadow=0;dashed=0;align=center;html=1;shape=mxgraph.mockup.graphics.rrect;rSize=0;fontColor=#666666;" vertex="1" parent="vficORJw0-0QsWjxtlRG-10">
          <mxGeometry x="31.000000000000004" width="67.16666666666667" height="18.266666666666662" as="geometry" />
        </mxCell>
        <mxCell id="vficORJw0-0QsWjxtlRG-14" value="Effort" style="strokeColor=inherit;fillColor=inherit;gradientColor=inherit;strokeWidth=1;shadow=0;dashed=0;align=center;html=1;shape=mxgraph.mockup.graphics.rrect;rSize=0;fontColor=#666666;" vertex="1" parent="vficORJw0-0QsWjxtlRG-10">
          <mxGeometry x="98.16666666666667" width="25.833333333333336" height="18.266666666666662" as="geometry" />
        </mxCell>
        <mxCell id="vficORJw0-0QsWjxtlRG-15" value="20//10//2014" style="strokeColor=inherit;fillColor=inherit;gradientColor=inherit;strokeWidth=1;shadow=0;dashed=0;align=center;html=1;shape=mxgraph.mockup.graphics.rrect;rSize=0;fontColor=#666666;" vertex="1" parent="vficORJw0-0QsWjxtlRG-10">
          <mxGeometry x="124.00000000000001" width="108.50000000000001" height="9.133333333333331" as="geometry" />
        </mxCell>
        <mxCell id="vficORJw0-0QsWjxtlRG-16" value="27//10//2014" style="strokeColor=inherit;fillColor=inherit;gradientColor=inherit;strokeWidth=1;shadow=0;dashed=0;align=center;html=1;shape=mxgraph.mockup.graphics.rrect;rSize=0;fontColor=#666666;" vertex="1" parent="vficORJw0-0QsWjxtlRG-10">
          <mxGeometry x="232.50000000000003" width="77.50000000000001" height="9.133333333333331" as="geometry" />
        </mxCell>
        <mxCell id="vficORJw0-0QsWjxtlRG-17" value="M" style="strokeColor=inherit;fillColor=inherit;gradientColor=inherit;strokeWidth=1;shadow=0;dashed=0;align=center;html=1;shape=mxgraph.mockup.graphics.rrect;rSize=0;;fontColor=#666666;" vertex="1" parent="vficORJw0-0QsWjxtlRG-10">
          <mxGeometry x="124.00000000000001" y="9.133333333333331" width="15.500000000000002" height="9.133333333333331" as="geometry" />
        </mxCell>
        <mxCell id="vficORJw0-0QsWjxtlRG-18" value="T" style="strokeColor=inherit;fillColor=inherit;gradientColor=inherit;strokeWidth=1;shadow=0;dashed=0;align=center;html=1;shape=mxgraph.mockup.graphics.rrect;rSize=0;fontColor=#666666;" vertex="1" parent="vficORJw0-0QsWjxtlRG-10">
          <mxGeometry x="139.5" y="9.133333333333331" width="15.500000000000002" height="9.133333333333331" as="geometry" />
        </mxCell>
        <mxCell id="vficORJw0-0QsWjxtlRG-19" value="W" style="strokeColor=inherit;fillColor=inherit;gradientColor=inherit;strokeWidth=1;shadow=0;dashed=0;align=center;html=1;shape=mxgraph.mockup.graphics.rrect;rSize=0;fontColor=#666666;" vertex="1" parent="vficORJw0-0QsWjxtlRG-10">
          <mxGeometry x="155.00000000000003" y="9.133333333333331" width="15.500000000000002" height="9.133333333333331" as="geometry" />
        </mxCell>
        <mxCell id="vficORJw0-0QsWjxtlRG-20" value="T" style="strokeColor=inherit;fillColor=inherit;gradientColor=inherit;strokeWidth=1;shadow=0;dashed=0;align=center;html=1;shape=mxgraph.mockup.graphics.rrect;rSize=0;fontColor=#666666;" vertex="1" parent="vficORJw0-0QsWjxtlRG-10">
          <mxGeometry x="170.50000000000003" y="9.133333333333331" width="15.500000000000002" height="9.133333333333331" as="geometry" />
        </mxCell>
        <mxCell id="vficORJw0-0QsWjxtlRG-21" value="F" style="strokeColor=inherit;fillColor=inherit;gradientColor=inherit;strokeWidth=1;shadow=0;dashed=0;align=center;html=1;shape=mxgraph.mockup.graphics.rrect;rSize=0;fontColor=#666666;" vertex="1" parent="vficORJw0-0QsWjxtlRG-10">
          <mxGeometry x="186.00000000000003" y="9.133333333333331" width="15.500000000000002" height="9.133333333333331" as="geometry" />
        </mxCell>
        <mxCell id="vficORJw0-0QsWjxtlRG-22" value="S" style="strokeColor=inherit;fillColor=inherit;gradientColor=inherit;strokeWidth=1;shadow=0;dashed=0;align=center;html=1;shape=mxgraph.mockup.graphics.rrect;rSize=0;fontColor=#666666;" vertex="1" parent="vficORJw0-0QsWjxtlRG-10">
          <mxGeometry x="201.50000000000003" y="9.133333333333331" width="15.500000000000002" height="9.133333333333331" as="geometry" />
        </mxCell>
        <mxCell id="vficORJw0-0QsWjxtlRG-23" value="S" style="strokeColor=inherit;fillColor=inherit;gradientColor=inherit;strokeWidth=1;shadow=0;dashed=0;align=center;html=1;shape=mxgraph.mockup.graphics.rrect;rSize=0;fontColor=#666666;" vertex="1" parent="vficORJw0-0QsWjxtlRG-10">
          <mxGeometry x="217.00000000000003" y="9.133333333333331" width="15.500000000000002" height="9.133333333333331" as="geometry" />
        </mxCell>
        <mxCell id="vficORJw0-0QsWjxtlRG-24" value="M" style="strokeColor=inherit;fillColor=inherit;gradientColor=inherit;strokeWidth=1;shadow=0;dashed=0;align=center;html=1;shape=mxgraph.mockup.graphics.rrect;rSize=0;fontColor=#666666;" vertex="1" parent="vficORJw0-0QsWjxtlRG-10">
          <mxGeometry x="232.50000000000003" y="9.133333333333331" width="15.500000000000002" height="9.133333333333331" as="geometry" />
        </mxCell>
        <mxCell id="vficORJw0-0QsWjxtlRG-25" value="T" style="strokeColor=inherit;fillColor=inherit;gradientColor=inherit;strokeWidth=1;shadow=0;dashed=0;align=center;html=1;shape=mxgraph.mockup.graphics.rrect;rSize=0;fontColor=#666666;" vertex="1" parent="vficORJw0-0QsWjxtlRG-10">
          <mxGeometry x="248.00000000000003" y="9.133333333333331" width="15.500000000000002" height="9.133333333333331" as="geometry" />
        </mxCell>
        <mxCell id="vficORJw0-0QsWjxtlRG-26" value="W" style="strokeColor=inherit;fillColor=inherit;gradientColor=inherit;strokeWidth=1;shadow=0;dashed=0;align=center;html=1;shape=mxgraph.mockup.graphics.rrect;rSize=0;fontColor=#666666;" vertex="1" parent="vficORJw0-0QsWjxtlRG-10">
          <mxGeometry x="263.5" y="9.133333333333331" width="15.500000000000002" height="9.133333333333331" as="geometry" />
        </mxCell>
        <mxCell id="vficORJw0-0QsWjxtlRG-27" value="T" style="strokeColor=inherit;fillColor=inherit;gradientColor=inherit;strokeWidth=1;shadow=0;dashed=0;align=center;html=1;shape=mxgraph.mockup.graphics.rrect;rSize=0;fontColor=#666666;" vertex="1" parent="vficORJw0-0QsWjxtlRG-10">
          <mxGeometry x="279" y="9.133333333333331" width="15.500000000000002" height="9.133333333333331" as="geometry" />
        </mxCell>
        <mxCell id="vficORJw0-0QsWjxtlRG-28" value="F" style="strokeColor=inherit;fillColor=inherit;gradientColor=inherit;strokeWidth=1;shadow=0;dashed=0;align=center;html=1;shape=mxgraph.mockup.graphics.rrect;rSize=0;fontColor=#666666;" vertex="1" parent="vficORJw0-0QsWjxtlRG-10">
          <mxGeometry x="294.50000000000006" y="9.133333333333331" width="15.500000000000002" height="9.133333333333331" as="geometry" />
        </mxCell>
        <mxCell id="vficORJw0-0QsWjxtlRG-29" value="" style="strokeColor=inherit;fillColor=inherit;gradientColor=inherit;strokeWidth=1;shadow=0;dashed=0;align=center;html=1;shape=mxgraph.mockup.graphics.rrect;rSize=0;fontColor=#666666;" vertex="1" parent="vficORJw0-0QsWjxtlRG-10">
          <mxGeometry y="18.266666666666662" width="124.00000000000001" height="118.7333333333333" as="geometry" />
        </mxCell>
        <mxCell id="vficORJw0-0QsWjxtlRG-30" value="" style="strokeColor=inherit;fillColor=inherit;gradientColor=inherit;strokeWidth=1;shadow=0;dashed=0;align=center;html=1;shape=mxgraph.mockup.graphics.rrect;rSize=0;fontColor=#666666;" vertex="1" parent="vficORJw0-0QsWjxtlRG-10">
          <mxGeometry x="124.00000000000001" y="18.266666666666662" width="31.000000000000004" height="118.7333333333333" as="geometry" />
        </mxCell>
        <mxCell id="vficORJw0-0QsWjxtlRG-31" value="" style="strokeColor=inherit;fillColor=inherit;gradientColor=inherit;strokeWidth=1;shadow=0;dashed=0;align=center;html=1;shape=mxgraph.mockup.graphics.rrect;rSize=0;fontColor=#666666;" vertex="1" parent="vficORJw0-0QsWjxtlRG-10">
          <mxGeometry x="155.00000000000003" y="18.266666666666662" width="31.000000000000004" height="118.7333333333333" as="geometry" />
        </mxCell>
        <mxCell id="vficORJw0-0QsWjxtlRG-32" value="" style="strokeColor=inherit;fillColor=inherit;gradientColor=inherit;strokeWidth=1;shadow=0;dashed=0;align=center;html=1;shape=mxgraph.mockup.graphics.rrect;rSize=0;fontColor=#666666;" vertex="1" parent="vficORJw0-0QsWjxtlRG-10">
          <mxGeometry x="186.00000000000003" y="18.266666666666662" width="31.000000000000004" height="118.7333333333333" as="geometry" />
        </mxCell>
        <mxCell id="vficORJw0-0QsWjxtlRG-33" value="" style="strokeColor=inherit;fillColor=inherit;gradientColor=inherit;strokeWidth=1;shadow=0;dashed=0;align=center;html=1;shape=mxgraph.mockup.graphics.rrect;rSize=0;fontColor=#666666;" vertex="1" parent="vficORJw0-0QsWjxtlRG-10">
          <mxGeometry x="217.00000000000003" y="18.266666666666662" width="31.000000000000004" height="118.7333333333333" as="geometry" />
        </mxCell>
        <mxCell id="vficORJw0-0QsWjxtlRG-34" value="" style="strokeColor=inherit;fillColor=inherit;gradientColor=inherit;strokeWidth=1;shadow=0;dashed=0;align=center;html=1;shape=mxgraph.mockup.graphics.rrect;rSize=0;fontColor=#666666;" vertex="1" parent="vficORJw0-0QsWjxtlRG-10">
          <mxGeometry x="248.00000000000003" y="18.266666666666662" width="31.000000000000004" height="118.7333333333333" as="geometry" />
        </mxCell>
        <mxCell id="vficORJw0-0QsWjxtlRG-35" value="" style="strokeColor=inherit;fillColor=inherit;gradientColor=inherit;strokeWidth=1;shadow=0;dashed=0;align=center;html=1;shape=mxgraph.mockup.graphics.rrect;rSize=0;fontColor=#666666;" vertex="1" parent="vficORJw0-0QsWjxtlRG-10">
          <mxGeometry x="279" y="18.266666666666662" width="31.000000000000004" height="118.7333333333333" as="geometry" />
        </mxCell>
        <mxCell id="vficORJw0-0QsWjxtlRG-36" value="1" style="strokeWidth=1;shadow=0;dashed=0;align=center;html=1;shape=mxgraph.mockup.graphics.anchor;fontColor=#666666;" vertex="1" parent="vficORJw0-0QsWjxtlRG-10">
          <mxGeometry y="18.266666666666662" width="10.333333333333334" height="9.133333333333331" as="geometry" />
        </mxCell>
        <mxCell id="vficORJw0-0QsWjxtlRG-37" value="Task 1" style="strokeWidth=1;shadow=0;dashed=0;align=center;html=1;shape=mxgraph.mockup.graphics.anchor;fontColor=#666666;" vertex="1" parent="vficORJw0-0QsWjxtlRG-10">
          <mxGeometry x="10.333333333333334" y="18.266666666666662" width="20.666666666666668" height="9.133333333333331" as="geometry" />
        </mxCell>
        <mxCell id="vficORJw0-0QsWjxtlRG-38" value="20//10//2014 8:00 AM" style="strokeWidth=1;shadow=0;dashed=0;align=center;html=1;shape=mxgraph.mockup.graphics.anchor;fontColor=#666666;" vertex="1" parent="vficORJw0-0QsWjxtlRG-10">
          <mxGeometry x="31.000000000000004" y="18.266666666666662" width="67.16666666666667" height="9.133333333333331" as="geometry" />
        </mxCell>
        <mxCell id="vficORJw0-0QsWjxtlRG-39" value="40h" style="strokeWidth=1;shadow=0;dashed=0;align=center;html=1;shape=mxgraph.mockup.graphics.anchor;fontColor=#666666;" vertex="1" parent="vficORJw0-0QsWjxtlRG-10">
          <mxGeometry x="98.16666666666667" y="18.266666666666662" width="25.833333333333336" height="9.133333333333331" as="geometry" />
        </mxCell>
        <mxCell id="vficORJw0-0QsWjxtlRG-40" value="2" style="strokeWidth=1;shadow=0;dashed=0;align=center;html=1;shape=mxgraph.mockup.graphics.anchor;fontColor=#666666;" vertex="1" parent="vficORJw0-0QsWjxtlRG-10">
          <mxGeometry y="27.4" width="10.333333333333334" height="9.133333333333331" as="geometry" />
        </mxCell>
        <mxCell id="vficORJw0-0QsWjxtlRG-41" value="Task 2" style="strokeWidth=1;shadow=0;dashed=0;align=center;html=1;shape=mxgraph.mockup.graphics.anchor;fontColor=#666666;" vertex="1" parent="vficORJw0-0QsWjxtlRG-10">
          <mxGeometry x="10.333333333333334" y="27.4" width="20.666666666666668" height="9.133333333333331" as="geometry" />
        </mxCell>
        <mxCell id="vficORJw0-0QsWjxtlRG-42" value="20//10//2014 8:00 AM" style="strokeWidth=1;shadow=0;dashed=0;align=center;html=1;shape=mxgraph.mockup.graphics.anchor;fontColor=#666666;" vertex="1" parent="vficORJw0-0QsWjxtlRG-10">
          <mxGeometry x="31.000000000000004" y="27.4" width="67.16666666666667" height="9.133333333333331" as="geometry" />
        </mxCell>
        <mxCell id="vficORJw0-0QsWjxtlRG-43" value="40h" style="strokeWidth=1;shadow=0;dashed=0;align=center;html=1;shape=mxgraph.mockup.graphics.anchor;fontColor=#666666;" vertex="1" parent="vficORJw0-0QsWjxtlRG-10">
          <mxGeometry x="98.16666666666667" y="27.4" width="25.833333333333336" height="9.133333333333331" as="geometry" />
        </mxCell>
        <mxCell id="vficORJw0-0QsWjxtlRG-44" value="3" style="strokeWidth=1;shadow=0;dashed=0;align=center;html=1;shape=mxgraph.mockup.graphics.anchor;fontColor=#666666;" vertex="1" parent="vficORJw0-0QsWjxtlRG-10">
          <mxGeometry y="36.533333333333324" width="10.333333333333334" height="9.133333333333331" as="geometry" />
        </mxCell>
        <mxCell id="vficORJw0-0QsWjxtlRG-45" value="Task 3" style="strokeWidth=1;shadow=0;dashed=0;align=center;html=1;shape=mxgraph.mockup.graphics.anchor;fontColor=#666666;" vertex="1" parent="vficORJw0-0QsWjxtlRG-10">
          <mxGeometry x="10.333333333333334" y="36.533333333333324" width="20.666666666666668" height="9.133333333333331" as="geometry" />
        </mxCell>
        <mxCell id="vficORJw0-0QsWjxtlRG-46" value="20//10//2014 8:00 AM" style="strokeWidth=1;shadow=0;dashed=0;align=center;html=1;shape=mxgraph.mockup.graphics.anchor;fontColor=#666666;" vertex="1" parent="vficORJw0-0QsWjxtlRG-10">
          <mxGeometry x="31.000000000000004" y="36.533333333333324" width="67.16666666666667" height="9.133333333333331" as="geometry" />
        </mxCell>
        <mxCell id="vficORJw0-0QsWjxtlRG-47" value="40h" style="strokeWidth=1;shadow=0;dashed=0;align=center;html=1;shape=mxgraph.mockup.graphics.anchor;fontColor=#666666;" vertex="1" parent="vficORJw0-0QsWjxtlRG-10">
          <mxGeometry x="98.16666666666667" y="36.533333333333324" width="25.833333333333336" height="9.133333333333331" as="geometry" />
        </mxCell>
        <mxCell id="vficORJw0-0QsWjxtlRG-48" value="4" style="strokeWidth=1;shadow=0;dashed=0;align=center;html=1;shape=mxgraph.mockup.graphics.anchor;fontColor=#666666;" vertex="1" parent="vficORJw0-0QsWjxtlRG-10">
          <mxGeometry y="45.66666666666666" width="10.333333333333334" height="9.133333333333331" as="geometry" />
        </mxCell>
        <mxCell id="vficORJw0-0QsWjxtlRG-49" value="Task 4" style="strokeWidth=1;shadow=0;dashed=0;align=center;html=1;shape=mxgraph.mockup.graphics.anchor;fontColor=#666666;" vertex="1" parent="vficORJw0-0QsWjxtlRG-10">
          <mxGeometry x="10.333333333333334" y="45.66666666666666" width="20.666666666666668" height="9.133333333333331" as="geometry" />
        </mxCell>
        <mxCell id="vficORJw0-0QsWjxtlRG-50" value="20//10//2014 8:00 AM" style="strokeWidth=1;shadow=0;dashed=0;align=center;html=1;shape=mxgraph.mockup.graphics.anchor;fontColor=#666666;" vertex="1" parent="vficORJw0-0QsWjxtlRG-10">
          <mxGeometry x="31.000000000000004" y="45.66666666666666" width="67.16666666666667" height="9.133333333333331" as="geometry" />
        </mxCell>
        <mxCell id="vficORJw0-0QsWjxtlRG-51" value="40h" style="strokeWidth=1;shadow=0;dashed=0;align=center;html=1;shape=mxgraph.mockup.graphics.anchor;fontColor=#666666;" vertex="1" parent="vficORJw0-0QsWjxtlRG-10">
          <mxGeometry x="98.16666666666667" y="45.66666666666666" width="25.833333333333336" height="9.133333333333331" as="geometry" />
        </mxCell>
        <mxCell id="vficORJw0-0QsWjxtlRG-52" value="" style="strokeWidth=1;shadow=0;dashed=0;align=center;html=1;shape=mxgraph.mockup.graphics.rrect;rSize=0;strokeColor=none;fillColor=#aaddff;" vertex="1" parent="vficORJw0-0QsWjxtlRG-10">
          <mxGeometry x="129.16666666666669" y="20.549999999999994" width="67.16666666666667" height="4.5666666666666655" as="geometry" />
        </mxCell>
        <mxCell id="vficORJw0-0QsWjxtlRG-53" value="" style="strokeWidth=1;shadow=0;dashed=0;align=center;html=1;shape=mxgraph.mockup.graphics.rrect;rSize=0;strokeColor=none;fillColor=#aaddff;" vertex="1" parent="vficORJw0-0QsWjxtlRG-10">
          <mxGeometry x="129.16666666666669" y="29.683333333333326" width="20.666666666666668" height="4.5666666666666655" as="geometry" />
        </mxCell>
        <mxCell id="vficORJw0-0QsWjxtlRG-54" value="" style="strokeWidth=1;shadow=0;dashed=0;align=center;html=1;shape=mxgraph.mockup.graphics.rrect;rSize=0;strokeColor=none;fillColor=#aaddff;" vertex="1" parent="vficORJw0-0QsWjxtlRG-10">
          <mxGeometry x="144.66666666666669" y="38.81666666666666" width="51.66666666666667" height="4.5666666666666655" as="geometry" />
        </mxCell>
        <mxCell id="vficORJw0-0QsWjxtlRG-55" value="" style="strokeWidth=1;shadow=0;dashed=0;align=center;html=1;shape=mxgraph.mockup.graphics.rrect;rSize=0;strokeColor=none;fillColor=#aaddff;" vertex="1" parent="vficORJw0-0QsWjxtlRG-10">
          <mxGeometry x="175.66666666666669" y="47.94999999999999" width="36.16666666666667" height="4.5666666666666655" as="geometry" />
        </mxCell>
        <mxCell id="677b7b8949515195-15" value="&lt;div style=&quot;text-align: justify&quot;&gt;&lt;span&gt;Lorem ipsum dolor sit amet, consectetur adipisicing elit, sed do eiusmod tempor incididunt ut labore et dolore magna aliqua. Ut enim ad minim veniam, quis nostrud exercitation ullamco laboris nisi ut aliquip ex ea commodo consequat. Duis aute irure dolor in reprehenderit in voluptate velit esse cillum dolore eu fugiat nulla pariatur. Excepteur sint occaecat cupidatat non proident, sunt in culpa qui officia deserunt mollit anim id est laborum.&lt;/span&gt;&lt;/div&gt;&lt;div style=&quot;text-align: justify&quot;&gt;&lt;span&gt;Sed ut perspiciatis unde omnis iste natus error sit voluptatem accusantium doloremque laudantium, totam rem aperiam, eaque ipsa quae ab illo inventore veritatis et quasi architecto beatae vitae dicta sunt explicabo. Nemo enim ipsam voluptatem quia voluptas sit aspernatur aut odit aut fugit, sed quia consequuntur magni dolores eos qui ratione voluptatem sequi nesciunt.&amp;nbsp;&lt;/span&gt;&lt;/div&gt;" style="whiteSpace=wrap;html=1;rounded=0;shadow=0;labelBackgroundColor=none;strokeWidth=1;fillColor=none;fontFamily=Verdana;fontSize=12;align=center;verticalAlign=top;spacing=10;comic=1;" parent="1" vertex="1">
          <mxGeometry x="30" y="700" width="800" height="120" as="geometry" />
        </mxCell>
        <mxCell id="vficORJw0-0QsWjxtlRG-56" value="" style="strokeWidth=1;shadow=0;dashed=0;align=center;html=1;shape=mxgraph.mockup.rrect;rSize=10;fillColor=#ffffff;strokeColor=#666666;" vertex="1" parent="1">
          <mxGeometry x="290" y="80" width="490" height="50" as="geometry" />
        </mxCell>
        <mxCell id="vficORJw0-0QsWjxtlRG-57" value="Button 2" style="strokeColor=inherit;fillColor=inherit;gradientColor=inherit;strokeWidth=1;shadow=0;dashed=0;align=center;html=1;shape=mxgraph.mockup.rrect;rSize=0;fontSize=17;fontColor=#666666;fontStyle=1;resizeHeight=1;" vertex="1" parent="vficORJw0-0QsWjxtlRG-56">
          <mxGeometry width="125" height="50" relative="1" as="geometry">
            <mxPoint x="125" as="offset" />
          </mxGeometry>
        </mxCell>
        <mxCell id="vficORJw0-0QsWjxtlRG-58" value="Button 3" style="strokeColor=inherit;fillColor=inherit;gradientColor=inherit;strokeWidth=1;shadow=0;dashed=0;align=center;html=1;shape=mxgraph.mockup.rrect;rSize=0;fontSize=17;fontColor=#666666;fontStyle=1;resizeHeight=1;" vertex="1" parent="vficORJw0-0QsWjxtlRG-56">
          <mxGeometry width="125" height="50" relative="1" as="geometry">
            <mxPoint x="250" as="offset" />
          </mxGeometry>
        </mxCell>
        <mxCell id="vficORJw0-0QsWjxtlRG-59" value="Button 4" style="strokeColor=inherit;fillColor=inherit;gradientColor=inherit;strokeWidth=1;shadow=0;dashed=0;align=center;html=1;shape=mxgraph.mockup.rightButton;rSize=10;fontSize=17;fontColor=#666666;fontStyle=1;resizeHeight=1;" vertex="1" parent="vficORJw0-0QsWjxtlRG-56">
          <mxGeometry x="1" width="125" height="50" relative="1" as="geometry">
            <mxPoint x="-125" as="offset" />
          </mxGeometry>
        </mxCell>
        <mxCell id="vficORJw0-0QsWjxtlRG-60" value="Button 1" style="strokeWidth=1;shadow=0;dashed=0;align=center;html=1;shape=mxgraph.mockup.leftButton;rSize=10;fontSize=17;fontColor=#ffffff;fontStyle=1;fillColor=#008cff;strokeColor=#008cff;resizeHeight=1;" vertex="1" parent="vficORJw0-0QsWjxtlRG-56">
          <mxGeometry width="125" height="50" relative="1" as="geometry" />
        </mxCell>
        <mxCell id="vficORJw0-0QsWjxtlRG-61" value="" style="verticalLabelPosition=bottom;shadow=0;dashed=0;align=center;html=1;verticalAlign=top;strokeWidth=1;shape=mxgraph.mockup.containers.userMale;strokeColor=#666666;strokeColor2=#008cff;" vertex="1" parent="1">
          <mxGeometry x="30" y="490" width="130" height="130" as="geometry" />
        </mxCell>
        <mxCell id="vficORJw0-0QsWjxtlRG-69" value="Search" style="strokeWidth=1;shadow=0;dashed=1;align=center;html=1;shape=mxgraph.mockup.forms.searchBox;mainText=;strokeColor2=#008cff;fontColor=#666666;fontSize=17;align=left;spacingLeft=3;rounded=1;labelBackgroundColor=#FFCCFF;fillColor=none;" vertex="1" parent="1">
          <mxGeometry x="800" y="60" width="150" height="30" as="geometry" />
        </mxCell>
        <mxCell id="vficORJw0-0QsWjxtlRG-70" value="" style="strokeWidth=1;shadow=0;dashed=0;align=center;html=1;shape=mxgraph.mockup.forms.rrect;rSize=5;strokeColor=#999999;fillColor=#ffffff;rounded=1;labelBackgroundColor=#FFCCFF;" vertex="1" parent="1">
          <mxGeometry x="700" y="360" width="140" height="150" as="geometry" />
        </mxCell>
        <mxCell id="vficORJw0-0QsWjxtlRG-71" value="October 2014" style="strokeWidth=1;shadow=0;dashed=0;align=center;html=1;shape=mxgraph.mockup.forms.anchor;fontColor=#999999;" vertex="1" parent="vficORJw0-0QsWjxtlRG-70">
          <mxGeometry x="26.25" y="6.857142857142857" width="87.5" height="17.142857142857142" as="geometry" />
        </mxCell>
        <mxCell id="vficORJw0-0QsWjxtlRG-72" value="&lt;" style="strokeWidth=1;shadow=0;dashed=0;align=center;html=1;shape=mxgraph.mockup.forms.rrect;rSize=4;strokeColor=#999999;fontColor=#008cff;fontSize=19;fontStyle=1;" vertex="1" parent="vficORJw0-0QsWjxtlRG-70">
          <mxGeometry x="7" y="6.857142857142857" width="21.875" height="17.142857142857142" as="geometry" />
        </mxCell>
        <mxCell id="vficORJw0-0QsWjxtlRG-73" value="&gt;" style="strokeWidth=1;shadow=0;dashed=0;align=center;html=1;shape=mxgraph.mockup.forms.rrect;rSize=4;strokeColor=#999999;fontColor=#008cff;fontSize=19;fontStyle=1;" vertex="1" parent="vficORJw0-0QsWjxtlRG-70">
          <mxGeometry x="111.125" y="6.857142857142857" width="21.875" height="17.142857142857142" as="geometry" />
        </mxCell>
        <mxCell id="vficORJw0-0QsWjxtlRG-74" value="Mo" style="strokeWidth=1;shadow=0;dashed=0;align=center;html=1;shape=mxgraph.mockup.forms.anchor;fontColor=#999999;" vertex="1" parent="vficORJw0-0QsWjxtlRG-70">
          <mxGeometry x="8.75" y="24" width="17.5" height="17.142857142857142" as="geometry" />
        </mxCell>
        <mxCell id="vficORJw0-0QsWjxtlRG-75" value="Tu" style="strokeWidth=1;shadow=0;dashed=0;align=center;html=1;shape=mxgraph.mockup.forms.anchor;fontColor=#999999;" vertex="1" parent="vficORJw0-0QsWjxtlRG-70">
          <mxGeometry x="26.25" y="24" width="17.5" height="17.142857142857142" as="geometry" />
        </mxCell>
        <mxCell id="vficORJw0-0QsWjxtlRG-76" value="We" style="strokeWidth=1;shadow=0;dashed=0;align=center;html=1;shape=mxgraph.mockup.forms.anchor;fontColor=#999999;" vertex="1" parent="vficORJw0-0QsWjxtlRG-70">
          <mxGeometry x="43.75" y="24" width="17.5" height="17.142857142857142" as="geometry" />
        </mxCell>
        <mxCell id="vficORJw0-0QsWjxtlRG-77" value="Th" style="strokeWidth=1;shadow=0;dashed=0;align=center;html=1;shape=mxgraph.mockup.forms.anchor;fontColor=#999999;" vertex="1" parent="vficORJw0-0QsWjxtlRG-70">
          <mxGeometry x="61.25" y="24" width="17.5" height="17.142857142857142" as="geometry" />
        </mxCell>
        <mxCell id="vficORJw0-0QsWjxtlRG-78" value="Fr" style="strokeWidth=1;shadow=0;dashed=0;align=center;html=1;shape=mxgraph.mockup.forms.anchor;fontColor=#999999;" vertex="1" parent="vficORJw0-0QsWjxtlRG-70">
          <mxGeometry x="78.75" y="24" width="17.5" height="17.142857142857142" as="geometry" />
        </mxCell>
        <mxCell id="vficORJw0-0QsWjxtlRG-79" value="Sa" style="strokeWidth=1;shadow=0;dashed=0;align=center;html=1;shape=mxgraph.mockup.forms.anchor;fontColor=#999999;" vertex="1" parent="vficORJw0-0QsWjxtlRG-70">
          <mxGeometry x="96.25" y="24" width="17.5" height="17.142857142857142" as="geometry" />
        </mxCell>
        <mxCell id="vficORJw0-0QsWjxtlRG-80" value="Su" style="strokeWidth=1;shadow=0;dashed=0;align=center;html=1;shape=mxgraph.mockup.forms.anchor;fontColor=#999999;" vertex="1" parent="vficORJw0-0QsWjxtlRG-70">
          <mxGeometry x="113.75" y="24" width="17.5" height="17.142857142857142" as="geometry" />
        </mxCell>
        <mxCell id="vficORJw0-0QsWjxtlRG-81" value="1" style="strokeWidth=1;shadow=0;dashed=0;align=center;html=1;shape=mxgraph.mockup.forms.rrect;rSize=0;strokeColor=#999999;fontColor=#999999;" vertex="1" parent="vficORJw0-0QsWjxtlRG-70">
          <mxGeometry x="8.75" y="41.14285714285714" width="17.5" height="17.142857142857142" as="geometry" />
        </mxCell>
        <mxCell id="vficORJw0-0QsWjxtlRG-82" value="2" style="strokeWidth=1;shadow=0;dashed=0;align=center;html=1;shape=mxgraph.mockup.forms.rrect;rSize=0;strokeColor=#999999;fontColor=#999999;" vertex="1" parent="vficORJw0-0QsWjxtlRG-70">
          <mxGeometry x="26.25" y="41.14285714285714" width="17.5" height="17.142857142857142" as="geometry" />
        </mxCell>
        <mxCell id="vficORJw0-0QsWjxtlRG-83" value="3" style="strokeWidth=1;shadow=0;dashed=0;align=center;html=1;shape=mxgraph.mockup.forms.rrect;rSize=0;strokeColor=#999999;fontColor=#999999;" vertex="1" parent="vficORJw0-0QsWjxtlRG-70">
          <mxGeometry x="43.75" y="41.14285714285714" width="17.5" height="17.142857142857142" as="geometry" />
        </mxCell>
        <mxCell id="vficORJw0-0QsWjxtlRG-84" value="4" style="strokeWidth=1;shadow=0;dashed=0;align=center;html=1;shape=mxgraph.mockup.forms.rrect;rSize=0;strokeColor=#999999;fontColor=#999999;" vertex="1" parent="vficORJw0-0QsWjxtlRG-70">
          <mxGeometry x="61.25" y="41.14285714285714" width="17.5" height="17.142857142857142" as="geometry" />
        </mxCell>
        <mxCell id="vficORJw0-0QsWjxtlRG-85" value="5" style="strokeWidth=1;shadow=0;dashed=0;align=center;html=1;shape=mxgraph.mockup.forms.rrect;rSize=0;strokeColor=#999999;fontColor=#999999;" vertex="1" parent="vficORJw0-0QsWjxtlRG-70">
          <mxGeometry x="78.75" y="41.14285714285714" width="17.5" height="17.142857142857142" as="geometry" />
        </mxCell>
        <mxCell id="vficORJw0-0QsWjxtlRG-86" value="6" style="strokeWidth=1;shadow=0;dashed=0;align=center;html=1;shape=mxgraph.mockup.forms.rrect;rSize=0;strokeColor=#999999;fontColor=#999999;" vertex="1" parent="vficORJw0-0QsWjxtlRG-70">
          <mxGeometry x="96.25" y="41.14285714285714" width="17.5" height="17.142857142857142" as="geometry" />
        </mxCell>
        <mxCell id="vficORJw0-0QsWjxtlRG-87" value="7" style="strokeWidth=1;shadow=0;dashed=0;align=center;html=1;shape=mxgraph.mockup.forms.rrect;rSize=0;strokeColor=#999999;fontColor=#999999;" vertex="1" parent="vficORJw0-0QsWjxtlRG-70">
          <mxGeometry x="113.75" y="41.14285714285714" width="17.5" height="17.142857142857142" as="geometry" />
        </mxCell>
        <mxCell id="vficORJw0-0QsWjxtlRG-88" value="8" style="strokeWidth=1;shadow=0;dashed=0;align=center;html=1;shape=mxgraph.mockup.forms.rrect;rSize=0;strokeColor=#999999;fontColor=#999999;" vertex="1" parent="vficORJw0-0QsWjxtlRG-70">
          <mxGeometry x="8.75" y="58.28571428571428" width="17.5" height="17.142857142857142" as="geometry" />
        </mxCell>
        <mxCell id="vficORJw0-0QsWjxtlRG-89" value="9" style="strokeWidth=1;shadow=0;dashed=0;align=center;html=1;shape=mxgraph.mockup.forms.rrect;rSize=0;strokeColor=#999999;fontColor=#999999;" vertex="1" parent="vficORJw0-0QsWjxtlRG-70">
          <mxGeometry x="26.25" y="58.28571428571428" width="17.5" height="17.142857142857142" as="geometry" />
        </mxCell>
        <mxCell id="vficORJw0-0QsWjxtlRG-90" value="10" style="strokeWidth=1;shadow=0;dashed=0;align=center;html=1;shape=mxgraph.mockup.forms.rrect;rSize=0;strokeColor=#999999;fontColor=#999999;" vertex="1" parent="vficORJw0-0QsWjxtlRG-70">
          <mxGeometry x="43.75" y="58.28571428571428" width="17.5" height="17.142857142857142" as="geometry" />
        </mxCell>
        <mxCell id="vficORJw0-0QsWjxtlRG-91" value="11" style="strokeWidth=1;shadow=0;dashed=0;align=center;html=1;shape=mxgraph.mockup.forms.rrect;rSize=0;strokeColor=#999999;fontColor=#999999;" vertex="1" parent="vficORJw0-0QsWjxtlRG-70">
          <mxGeometry x="61.25" y="58.28571428571428" width="17.5" height="17.142857142857142" as="geometry" />
        </mxCell>
        <mxCell id="vficORJw0-0QsWjxtlRG-92" value="12" style="strokeWidth=1;shadow=0;dashed=0;align=center;html=1;shape=mxgraph.mockup.forms.rrect;rSize=0;strokeColor=#999999;fontColor=#999999;" vertex="1" parent="vficORJw0-0QsWjxtlRG-70">
          <mxGeometry x="78.75" y="58.28571428571428" width="17.5" height="17.142857142857142" as="geometry" />
        </mxCell>
        <mxCell id="vficORJw0-0QsWjxtlRG-93" value="13" style="strokeWidth=1;shadow=0;dashed=0;align=center;html=1;shape=mxgraph.mockup.forms.rrect;rSize=0;strokeColor=#999999;fontColor=#999999;" vertex="1" parent="vficORJw0-0QsWjxtlRG-70">
          <mxGeometry x="96.25" y="58.28571428571428" width="17.5" height="17.142857142857142" as="geometry" />
        </mxCell>
        <mxCell id="vficORJw0-0QsWjxtlRG-94" value="14" style="strokeWidth=1;shadow=0;dashed=0;align=center;html=1;shape=mxgraph.mockup.forms.rrect;rSize=0;strokeColor=#999999;fontColor=#999999;" vertex="1" parent="vficORJw0-0QsWjxtlRG-70">
          <mxGeometry x="113.75" y="58.28571428571428" width="17.5" height="17.142857142857142" as="geometry" />
        </mxCell>
        <mxCell id="vficORJw0-0QsWjxtlRG-95" value="15" style="strokeWidth=1;shadow=0;dashed=0;align=center;html=1;shape=mxgraph.mockup.forms.rrect;rSize=0;strokeColor=#999999;fontColor=#999999;" vertex="1" parent="vficORJw0-0QsWjxtlRG-70">
          <mxGeometry x="8.75" y="75.42857142857143" width="17.5" height="17.142857142857142" as="geometry" />
        </mxCell>
        <mxCell id="vficORJw0-0QsWjxtlRG-96" value="16" style="strokeWidth=1;shadow=0;dashed=0;align=center;html=1;shape=mxgraph.mockup.forms.rrect;rSize=0;strokeColor=#999999;fontColor=#999999;" vertex="1" parent="vficORJw0-0QsWjxtlRG-70">
          <mxGeometry x="26.25" y="75.42857142857143" width="17.5" height="17.142857142857142" as="geometry" />
        </mxCell>
        <mxCell id="vficORJw0-0QsWjxtlRG-97" value="17" style="strokeWidth=1;shadow=0;dashed=0;align=center;html=1;shape=mxgraph.mockup.forms.rrect;rSize=0;strokeColor=#999999;fontColor=#999999;" vertex="1" parent="vficORJw0-0QsWjxtlRG-70">
          <mxGeometry x="43.75" y="75.42857142857143" width="17.5" height="17.142857142857142" as="geometry" />
        </mxCell>
        <mxCell id="vficORJw0-0QsWjxtlRG-98" value="18" style="strokeWidth=1;shadow=0;dashed=0;align=center;html=1;shape=mxgraph.mockup.forms.rrect;rSize=0;strokeColor=#999999;fontColor=#999999;" vertex="1" parent="vficORJw0-0QsWjxtlRG-70">
          <mxGeometry x="61.25" y="75.42857142857143" width="17.5" height="17.142857142857142" as="geometry" />
        </mxCell>
        <mxCell id="vficORJw0-0QsWjxtlRG-99" value="19" style="strokeWidth=1;shadow=0;dashed=0;align=center;html=1;shape=mxgraph.mockup.forms.rrect;rSize=0;strokeColor=#999999;fontColor=#999999;" vertex="1" parent="vficORJw0-0QsWjxtlRG-70">
          <mxGeometry x="78.75" y="75.42857142857143" width="17.5" height="17.142857142857142" as="geometry" />
        </mxCell>
        <mxCell id="vficORJw0-0QsWjxtlRG-100" value="20" style="strokeWidth=1;shadow=0;dashed=0;align=center;html=1;shape=mxgraph.mockup.forms.rrect;rSize=0;strokeColor=#999999;fontColor=#999999;" vertex="1" parent="vficORJw0-0QsWjxtlRG-70">
          <mxGeometry x="96.25" y="75.42857142857143" width="17.5" height="17.142857142857142" as="geometry" />
        </mxCell>
        <mxCell id="vficORJw0-0QsWjxtlRG-101" value="21" style="strokeWidth=1;shadow=0;dashed=0;align=center;html=1;shape=mxgraph.mockup.forms.rrect;rSize=0;strokeColor=#999999;fontColor=#999999;" vertex="1" parent="vficORJw0-0QsWjxtlRG-70">
          <mxGeometry x="113.75" y="75.42857142857143" width="17.5" height="17.142857142857142" as="geometry" />
        </mxCell>
        <mxCell id="vficORJw0-0QsWjxtlRG-102" value="22" style="strokeWidth=1;shadow=0;dashed=0;align=center;html=1;shape=mxgraph.mockup.forms.rrect;rSize=0;strokeColor=#999999;fontColor=#999999;" vertex="1" parent="vficORJw0-0QsWjxtlRG-70">
          <mxGeometry x="8.75" y="92.57142857142857" width="17.5" height="17.142857142857142" as="geometry" />
        </mxCell>
        <mxCell id="vficORJw0-0QsWjxtlRG-103" value="23" style="strokeWidth=1;shadow=0;dashed=0;align=center;html=1;shape=mxgraph.mockup.forms.rrect;rSize=0;strokeColor=#999999;fontColor=#999999;" vertex="1" parent="vficORJw0-0QsWjxtlRG-70">
          <mxGeometry x="26.25" y="92.57142857142857" width="17.5" height="17.142857142857142" as="geometry" />
        </mxCell>
        <mxCell id="vficORJw0-0QsWjxtlRG-104" value="25" style="strokeWidth=1;shadow=0;dashed=0;align=center;html=1;shape=mxgraph.mockup.forms.rrect;rSize=0;strokeColor=#999999;fontColor=#999999;" vertex="1" parent="vficORJw0-0QsWjxtlRG-70">
          <mxGeometry x="61.25" y="92.57142857142857" width="17.5" height="17.142857142857142" as="geometry" />
        </mxCell>
        <mxCell id="vficORJw0-0QsWjxtlRG-105" value="26" style="strokeWidth=1;shadow=0;dashed=0;align=center;html=1;shape=mxgraph.mockup.forms.rrect;rSize=0;strokeColor=#999999;fontColor=#999999;" vertex="1" parent="vficORJw0-0QsWjxtlRG-70">
          <mxGeometry x="78.75" y="92.57142857142857" width="17.5" height="17.142857142857142" as="geometry" />
        </mxCell>
        <mxCell id="vficORJw0-0QsWjxtlRG-106" value="27" style="strokeWidth=1;shadow=0;dashed=0;align=center;html=1;shape=mxgraph.mockup.forms.rrect;rSize=0;strokeColor=#999999;fontColor=#999999;" vertex="1" parent="vficORJw0-0QsWjxtlRG-70">
          <mxGeometry x="96.25" y="92.57142857142857" width="17.5" height="17.142857142857142" as="geometry" />
        </mxCell>
        <mxCell id="vficORJw0-0QsWjxtlRG-107" value="28" style="strokeWidth=1;shadow=0;dashed=0;align=center;html=1;shape=mxgraph.mockup.forms.rrect;rSize=0;strokeColor=#999999;fontColor=#999999;" vertex="1" parent="vficORJw0-0QsWjxtlRG-70">
          <mxGeometry x="113.75" y="92.57142857142857" width="17.5" height="17.142857142857142" as="geometry" />
        </mxCell>
        <mxCell id="vficORJw0-0QsWjxtlRG-108" value="29" style="strokeWidth=1;shadow=0;dashed=0;align=center;html=1;shape=mxgraph.mockup.forms.rrect;rSize=0;strokeColor=#999999;fontColor=#999999;" vertex="1" parent="vficORJw0-0QsWjxtlRG-70">
          <mxGeometry x="8.75" y="109.71428571428571" width="17.5" height="17.142857142857142" as="geometry" />
        </mxCell>
        <mxCell id="vficORJw0-0QsWjxtlRG-109" value="30" style="strokeWidth=1;shadow=0;dashed=0;align=center;html=1;shape=mxgraph.mockup.forms.rrect;rSize=0;strokeColor=#999999;fontColor=#999999;" vertex="1" parent="vficORJw0-0QsWjxtlRG-70">
          <mxGeometry x="26.25" y="109.71428571428571" width="17.5" height="17.142857142857142" as="geometry" />
        </mxCell>
        <mxCell id="vficORJw0-0QsWjxtlRG-110" value="31" style="strokeWidth=1;shadow=0;dashed=0;align=center;html=1;shape=mxgraph.mockup.forms.rrect;rSize=0;strokeColor=#999999;fontColor=#999999;" vertex="1" parent="vficORJw0-0QsWjxtlRG-70">
          <mxGeometry x="43.75" y="109.71428571428571" width="17.5" height="17.142857142857142" as="geometry" />
        </mxCell>
        <mxCell id="vficORJw0-0QsWjxtlRG-111" value="1" style="strokeWidth=1;shadow=0;dashed=0;align=center;html=1;shape=mxgraph.mockup.forms.rrect;rSize=0;strokeColor=#999999;fontColor=#999999;fillColor=#ddeeff;" vertex="1" parent="vficORJw0-0QsWjxtlRG-70">
          <mxGeometry x="61.25" y="109.71428571428571" width="17.5" height="17.142857142857142" as="geometry" />
        </mxCell>
        <mxCell id="vficORJw0-0QsWjxtlRG-112" value="2" style="strokeWidth=1;shadow=0;dashed=0;align=center;html=1;shape=mxgraph.mockup.forms.rrect;rSize=0;strokeColor=#999999;fontColor=#999999;fillColor=#ddeeff;" vertex="1" parent="vficORJw0-0QsWjxtlRG-70">
          <mxGeometry x="78.75" y="109.71428571428571" width="17.5" height="17.142857142857142" as="geometry" />
        </mxCell>
        <mxCell id="vficORJw0-0QsWjxtlRG-113" value="3" style="strokeWidth=1;shadow=0;dashed=0;align=center;html=1;shape=mxgraph.mockup.forms.rrect;rSize=0;strokeColor=#999999;fontColor=#999999;fillColor=#ddeeff;" vertex="1" parent="vficORJw0-0QsWjxtlRG-70">
          <mxGeometry x="96.25" y="109.71428571428571" width="17.5" height="17.142857142857142" as="geometry" />
        </mxCell>
        <mxCell id="vficORJw0-0QsWjxtlRG-114" value="4" style="strokeWidth=1;shadow=0;dashed=0;align=center;html=1;shape=mxgraph.mockup.forms.rrect;rSize=0;strokeColor=#999999;fontColor=#999999;fillColor=#ddeeff;" vertex="1" parent="vficORJw0-0QsWjxtlRG-70">
          <mxGeometry x="113.75" y="109.71428571428571" width="17.5" height="17.142857142857142" as="geometry" />
        </mxCell>
        <mxCell id="vficORJw0-0QsWjxtlRG-115" value="5" style="strokeWidth=1;shadow=0;dashed=0;align=center;html=1;shape=mxgraph.mockup.forms.rrect;rSize=0;strokeColor=#999999;fontColor=#999999;fillColor=#ddeeff;" vertex="1" parent="vficORJw0-0QsWjxtlRG-70">
          <mxGeometry x="8.75" y="126.85714285714285" width="17.5" height="17.142857142857142" as="geometry" />
        </mxCell>
        <mxCell id="vficORJw0-0QsWjxtlRG-116" value="6" style="strokeWidth=1;shadow=0;dashed=0;align=center;html=1;shape=mxgraph.mockup.forms.rrect;rSize=0;strokeColor=#999999;fontColor=#999999;fillColor=#ddeeff;" vertex="1" parent="vficORJw0-0QsWjxtlRG-70">
          <mxGeometry x="26.25" y="126.85714285714285" width="17.5" height="17.142857142857142" as="geometry" />
        </mxCell>
        <mxCell id="vficORJw0-0QsWjxtlRG-117" value="7" style="strokeWidth=1;shadow=0;dashed=0;align=center;html=1;shape=mxgraph.mockup.forms.rrect;rSize=0;strokeColor=#999999;fontColor=#999999;fillColor=#ddeeff;" vertex="1" parent="vficORJw0-0QsWjxtlRG-70">
          <mxGeometry x="43.75" y="126.85714285714285" width="17.5" height="17.142857142857142" as="geometry" />
        </mxCell>
        <mxCell id="vficORJw0-0QsWjxtlRG-118" value="8" style="strokeWidth=1;shadow=0;dashed=0;align=center;html=1;shape=mxgraph.mockup.forms.rrect;rSize=0;strokeColor=#999999;fontColor=#999999;fillColor=#ddeeff;" vertex="1" parent="vficORJw0-0QsWjxtlRG-70">
          <mxGeometry x="61.25" y="126.85714285714285" width="17.5" height="17.142857142857142" as="geometry" />
        </mxCell>
        <mxCell id="vficORJw0-0QsWjxtlRG-119" value="9" style="strokeWidth=1;shadow=0;dashed=0;align=center;html=1;shape=mxgraph.mockup.forms.rrect;rSize=0;strokeColor=#999999;fontColor=#999999;fillColor=#ddeeff;" vertex="1" parent="vficORJw0-0QsWjxtlRG-70">
          <mxGeometry x="78.75" y="126.85714285714285" width="17.5" height="17.142857142857142" as="geometry" />
        </mxCell>
        <mxCell id="vficORJw0-0QsWjxtlRG-120" value="10" style="strokeWidth=1;shadow=0;dashed=0;align=center;html=1;shape=mxgraph.mockup.forms.rrect;rSize=0;strokeColor=#999999;fontColor=#999999;fillColor=#ddeeff;" vertex="1" parent="vficORJw0-0QsWjxtlRG-70">
          <mxGeometry x="96.25" y="126.85714285714285" width="17.5" height="17.142857142857142" as="geometry" />
        </mxCell>
        <mxCell id="vficORJw0-0QsWjxtlRG-121" value="11" style="strokeWidth=1;shadow=0;dashed=0;align=center;html=1;shape=mxgraph.mockup.forms.rrect;rSize=0;strokeColor=#999999;fontColor=#999999;fillColor=#ddeeff;" vertex="1" parent="vficORJw0-0QsWjxtlRG-70">
          <mxGeometry x="113.75" y="126.85714285714285" width="17.5" height="17.142857142857142" as="geometry" />
        </mxCell>
        <mxCell id="vficORJw0-0QsWjxtlRG-122" value="24" style="strokeWidth=1;shadow=0;dashed=0;align=center;html=1;shape=mxgraph.mockup.forms.rrect;rSize=0;strokeColor=#ff0000;fontColor=#ffffff;strokeWidth=2;fillColor=#008cff;" vertex="1" parent="vficORJw0-0QsWjxtlRG-70">
          <mxGeometry x="43.75" y="92.57142857142857" width="17.5" height="17.142857142857142" as="geometry" />
        </mxCell>
        <mxCell id="vficORJw0-0QsWjxtlRG-123" value="" style="strokeWidth=1;shadow=0;dashed=0;align=center;html=1;shape=mxgraph.mockup.forms.rrect;rSize=0;strokeColor=#999999;fillColor=#ffffff;rounded=1;labelBackgroundColor=#FFCCFF;direction=east;flipV=0;flipH=1;" vertex="1" parent="1">
          <mxGeometry x="1090" y="20" width="200" height="300" as="geometry" />
        </mxCell>
        <mxCell id="vficORJw0-0QsWjxtlRG-124" value="Sign In" style="strokeWidth=1;shadow=0;dashed=0;align=center;html=1;shape=mxgraph.mockup.forms.anchor;fontSize=12;fontColor=#666666;align=left;resizeWidth=1;spacingLeft=0;" vertex="1" parent="vficORJw0-0QsWjxtlRG-123">
          <mxGeometry width="100" height="20" relative="1" as="geometry">
            <mxPoint x="10" y="10" as="offset" />
          </mxGeometry>
        </mxCell>
        <mxCell id="vficORJw0-0QsWjxtlRG-125" value="" style="shape=line;strokeColor=#ddeeff;strokeWidth=2;html=1;resizeWidth=1;" vertex="1" parent="vficORJw0-0QsWjxtlRG-123">
          <mxGeometry width="180" height="10" relative="1" as="geometry">
            <mxPoint x="10" y="30" as="offset" />
          </mxGeometry>
        </mxCell>
        <mxCell id="vficORJw0-0QsWjxtlRG-126" value="User Name:" style="strokeWidth=1;shadow=0;dashed=0;align=center;html=1;shape=mxgraph.mockup.forms.anchor;fontSize=12;fontColor=#666666;align=left;resizeWidth=1;spacingLeft=0;" vertex="1" parent="vficORJw0-0QsWjxtlRG-123">
          <mxGeometry width="100" height="20" relative="1" as="geometry">
            <mxPoint x="10" y="40" as="offset" />
          </mxGeometry>
        </mxCell>
        <mxCell id="vficORJw0-0QsWjxtlRG-127" value="johndoe" style="strokeWidth=1;shadow=0;dashed=0;align=center;html=1;shape=mxgraph.mockup.forms.rrect;rSize=0;strokeColor=#999999;fontColor=#666666;align=left;spacingLeft=5;resizeWidth=1;" vertex="1" parent="vficORJw0-0QsWjxtlRG-123">
          <mxGeometry width="150" height="25" relative="1" as="geometry">
            <mxPoint x="10" y="60" as="offset" />
          </mxGeometry>
        </mxCell>
        <mxCell id="vficORJw0-0QsWjxtlRG-128" value="Password:" style="strokeWidth=1;shadow=0;dashed=0;align=center;html=1;shape=mxgraph.mockup.forms.anchor;fontSize=12;fontColor=#666666;align=left;resizeWidth=1;spacingLeft=0;" vertex="1" parent="vficORJw0-0QsWjxtlRG-123">
          <mxGeometry width="100" height="20" relative="1" as="geometry">
            <mxPoint x="10" y="95" as="offset" />
          </mxGeometry>
        </mxCell>
        <mxCell id="vficORJw0-0QsWjxtlRG-129" value="********" style="strokeWidth=1;shadow=0;dashed=0;align=center;html=1;shape=mxgraph.mockup.forms.rrect;rSize=0;strokeColor=#999999;fontColor=#666666;align=left;spacingLeft=5;resizeWidth=1;" vertex="1" parent="vficORJw0-0QsWjxtlRG-123">
          <mxGeometry width="150" height="25" relative="1" as="geometry">
            <mxPoint x="10" y="115" as="offset" />
          </mxGeometry>
        </mxCell>
        <mxCell id="vficORJw0-0QsWjxtlRG-130" value="SIGN IN" style="strokeWidth=1;shadow=0;dashed=0;align=center;html=1;shape=mxgraph.mockup.forms.rrect;rSize=5;strokeColor=none;fontColor=#ffffff;fillColor=#66bbff;fontSize=16;fontStyle=1;" vertex="1" parent="vficORJw0-0QsWjxtlRG-123">
          <mxGeometry y="1" width="80" height="30" relative="1" as="geometry">
            <mxPoint x="20" y="-150" as="offset" />
          </mxGeometry>
        </mxCell>
        <mxCell id="vficORJw0-0QsWjxtlRG-131" value="Forgot Password?" style="strokeWidth=1;shadow=0;dashed=0;align=center;html=1;shape=mxgraph.mockup.forms.anchor;fontSize=12;fontColor=#9999ff;align=left;spacingLeft=0;fontStyle=4;resizeWidth=1;" vertex="1" parent="vficORJw0-0QsWjxtlRG-123">
          <mxGeometry y="1" width="150" height="20" relative="1" as="geometry">
            <mxPoint x="10" y="-110" as="offset" />
          </mxGeometry>
        </mxCell>
        <mxCell id="vficORJw0-0QsWjxtlRG-132" value="" style="shape=line;strokeColor=#ddeeff;strokeWidth=2;html=1;resizeWidth=1;" vertex="1" parent="vficORJw0-0QsWjxtlRG-123">
          <mxGeometry y="1" width="180" height="10" relative="1" as="geometry">
            <mxPoint x="10" y="-90" as="offset" />
          </mxGeometry>
        </mxCell>
        <mxCell id="vficORJw0-0QsWjxtlRG-133" value="New User" style="strokeWidth=1;shadow=0;dashed=0;align=center;html=1;shape=mxgraph.mockup.forms.anchor;fontSize=12;fontColor=#666666;align=left;spacingLeft=0;resizeWidth=1;" vertex="1" parent="vficORJw0-0QsWjxtlRG-123">
          <mxGeometry y="1" width="150" height="20" relative="1" as="geometry">
            <mxPoint x="10" y="-70" as="offset" />
          </mxGeometry>
        </mxCell>
        <mxCell id="vficORJw0-0QsWjxtlRG-134" value="SIGN UP" style="strokeWidth=1;shadow=0;dashed=0;align=center;html=1;shape=mxgraph.mockup.forms.rrect;rSize=5;strokeColor=none;fontColor=#ffffff;fillColor=#66bbff;fontSize=16;fontStyle=1;" vertex="1" parent="vficORJw0-0QsWjxtlRG-123">
          <mxGeometry y="1" width="80" height="30" relative="1" as="geometry">
            <mxPoint x="20" y="-50" as="offset" />
          </mxGeometry>
        </mxCell>
      </root>
    </mxGraphModel>
  </diagram>
</mxfile>
